<?xml version="1.0" standalone="no"?>
<!DOCTYPE svg PUBLIC "-//W3C//DTD SVG 20010904//EN"
 "http://www.w3.org/TR/2001/REC-SVG-20010904/DTD/svg10.dtd">
<svg version="1.0" xmlns="http://www.w3.org/2000/svg"
 width="16.000000pt" height="16.000000pt" viewBox="0 0 16.000000 16.000000"
 preserveAspectRatio="xMidYMid meet">
<metadata>
Created by potrace 1.11, written by Peter Selinger 2001-2013
</metadata>
<g transform="translate(0.000000,16.000000) scale(0.001563,-0.001563)"
fill="#000000" stroke="none">
<path d="M2101 9793 c-121 -58 -182 -159 -177 -293 5 -136 90 -245 221 -282
28 -7 317 -11 970 -11 l930 1 59 22 c122 47 197 162 192 295 -4 89 -30 149
-91 209 -94 91 -20 85 -1100 85 l-950 0 -54 -26z"/>
<path d="M4980 9814 c-100 -38 -161 -89 -200 -164 -35 -67 -38 -186 -6 -254
30 -67 68 -110 125 -144 25 -15 48 -27 51 -28 3 0 22 -4 42 -8 21 -5 210 -10
420 -11 407 -4 489 -7 656 -31 17 -2 49 -6 70 -9 20 -3 75 -12 122 -21 47 -9
94 -17 105 -19 11 -1 43 -8 70 -15 28 -7 59 -14 71 -15 64 -9 447 -132 559
-180 245 -104 376 -169 550 -273 94 -56 268 -168 300 -194 5 -4 39 -29 75 -55
36 -26 72 -55 81 -65 9 -10 20 -18 24 -18 7 0 95 -75 194 -165 146 -133 310
-307 415 -440 22 -28 46 -57 53 -65 12 -13 44 -57 166 -225 12 -16 21 -32 20
-35 -1 -3 6 -13 14 -23 9 -9 21 -26 27 -36 6 -11 39 -66 74 -123 34 -57 103
-184 152 -283 49 -99 104 -195 122 -213 74 -76 175 -109 273 -90 104 21 175
74 221 166 25 49 29 68 28 137 0 80 0 80 -86 255 -48 96 -105 207 -128 245
-22 39 -43 78 -46 88 -4 9 -10 17 -15 17 -5 0 -9 5 -9 11 0 19 -174 282 -267
404 -5 6 -21 28 -38 50 -16 22 -34 45 -40 52 -5 7 -15 18 -20 25 -93 119 -251
293 -383 422 -121 117 -124 120 -207 191 -39 32 -78 66 -87 75 -21 18 -23 20
-128 101 -413 317 -871 561 -1365 727 -105 36 -282 88 -325 97 -8 2 -42 10
-75 18 -67 17 -77 19 -225 47 -130 24 -152 27 -215 35 -27 4 -61 8 -75 11 -14
2 -56 6 -95 10 -38 3 -79 8 -90 11 -29 7 -937 14 -955 7z"/>
<path d="M246 8584 c-66 -13 -108 -36 -153 -82 -137 -143 -106 -379 64 -478
22 -14 52 -28 65 -31 12 -4 1225 -8 2695 -9 2352 -1 2769 -4 2948 -19 69 -6
243 -37 320 -56 22 -6 49 -12 60 -14 11 -2 20 -4 20 -5 0 -1 9 -3 21 -5 34 -7
254 -80 329 -111 135 -54 317 -149 489 -257 52 -32 250 -181 299 -224 54 -48
262 -256 307 -308 78 -89 280 -370 280 -389 0 -4 12 -25 27 -49 139 -219 291
-640 337 -932 3 -16 7 -39 9 -50 3 -11 8 -54 12 -95 4 -41 9 -83 11 -93 1 -10
4 -46 5 -80 6 -158 68 -264 189 -321 63 -29 187 -29 250 0 60 28 123 91 151
150 19 39 23 66 23 134 1 80 -9 215 -19 270 -2 14 -7 52 -10 85 -3 33 -10 76
-15 95 -5 19 -12 55 -15 80 -3 25 -11 63 -17 85 -5 22 -12 51 -15 65 -12 66
-89 318 -131 425 -147 378 -351 720 -617 1031 -61 72 -240 252 -316 320 -101
89 -113 99 -184 153 -38 29 -77 58 -86 66 -22 17 -170 118 -189 128 -8 4 -31
18 -52 30 -174 105 -324 180 -508 254 -74 30 -139 56 -145 57 -12 3 -85 25
-105 33 -19 7 -8 5 -170 47 -114 30 -207 49 -395 80 -38 6 -115 14 -230 22
-156 12 -5482 10 -5539 -2z"/>
<path d="M1005 7349 c-109 -45 -190 -152 -199 -264 -11 -145 87 -282 229 -320
17 -5 347 -9 735 -9 463 -1 705 -4 705 -11 0 -5 -19 -48 -41 -95 -66 -136
-154 -344 -154 -362 0 -4 -5 -19 -12 -35 -6 -15 -12 -32 -14 -38 -9 -32 -56
-195 -64 -220 -12 -38 -48 -207 -55 -260 -4 -22 -8 -47 -10 -55 -5 -17 -16
-96 -20 -150 -2 -19 -7 -69 -12 -110 -15 -147 -9 -525 12 -705 6 -53 17 -130
20 -145 2 -8 6 -33 10 -55 31 -187 131 -539 190 -670 7 -16 25 -59 40 -94 51
-123 201 -410 237 -456 5 -5 27 -39 50 -75 36 -57 165 -235 193 -266 5 -6 26
-31 45 -54 34 -42 132 -148 218 -237 50 -52 300 -273 308 -273 2 0 30 -20 61
-44 66 -49 210 -148 233 -159 8 -4 29 -16 45 -27 66 -42 175 -101 213 -114 66
-24 168 -15 231 20 126 68 197 227 155 347 -7 20 -11 37 -8 37 10 0 -60 95
-85 115 -23 19 -54 39 -152 94 -98 55 -160 93 -172 105 -7 7 -21 18 -32 23
-21 12 -116 86 -200 156 -119 100 -295 287 -440 468 -68 85 -205 308 -273 445
-71 141 -172 405 -197 514 -41 173 -64 286 -69 330 -3 30 -7 64 -10 75 -20 98
-26 437 -12 590 5 50 10 108 12 130 1 22 3 40 4 40 1 0 4 11 6 25 21 116 47
243 58 280 7 25 13 47 14 50 0 10 44 155 50 165 4 6 7 15 8 20 1 6 20 55 42
110 83 210 206 433 337 614 99 137 109 162 110 266 0 74 -4 97 -22 131 -32 60
-104 126 -165 151 l-53 22 -1025 0 c-1005 0 -1026 -1 -1075 -20z"/>
<path d="M5330 7359 c-30 -4 -82 -11 -115 -14 -32 -4 -62 -8 -65 -10 -4 -2
-22 -7 -41 -10 -19 -3 -47 -8 -64 -12 -38 -9 -33 -7 -80 -21 -22 -6 -42 -11
-45 -11 -9 -1 -154 -51 -210 -74 -74 -29 -264 -123 -298 -145 -97 -66 -154
-102 -162 -102 -6 0 -10 -4 -10 -8 0 -4 -12 -15 -27 -24 -16 -9 -39 -27 -53
-40 -14 -13 -38 -34 -55 -47 -16 -12 -64 -55 -105 -95 -306 -293 -515 -650
-625 -1066 -5 -19 -26 -121 -30 -141 -18 -113 -26 -171 -30 -209 -6 -58 -6
-378 -1 -407 3 -12 7 -48 11 -80 5 -49 34 -205 50 -266 3 -9 7 -27 10 -40 15
-68 102 -303 143 -382 8 -16 18 -37 22 -45 14 -30 84 -155 92 -165 5 -5 29
-41 54 -80 26 -38 57 -81 70 -96 13 -14 24 -28 24 -32 0 -11 69 -87 190 -207
219 -219 479 -388 760 -495 87 -33 248 -83 283 -88 19 -2 39 -7 44 -10 10 -6
185 -33 282 -43 92 -9 271 -11 356 -3 161 16 203 21 261 34 34 8 73 16 85 19
13 2 42 9 64 15 22 6 43 11 47 11 4 0 27 8 50 16 24 9 48 17 53 18 69 18 298
121 376 169 82 50 95 61 129 103 98 123 84 288 -34 397 -28 26 -72 54 -93 59
-83 22 -101 24 -151 16 -58 -9 -153 -37 -162 -47 -4 -6 -54 -31 -70 -36 -3 -1
-35 -16 -72 -33 -37 -18 -76 -34 -85 -36 -10 -1 -31 -8 -48 -15 -16 -7 -43
-15 -60 -18 -16 -3 -37 -9 -45 -13 -13 -7 -114 -25 -240 -44 -82 -13 -309 -7
-400 10 -14 3 -43 7 -65 10 -22 3 -65 13 -95 22 -30 9 -58 15 -62 14 -4 -1
-28 7 -53 18 -25 11 -49 20 -53 21 -50 12 -217 93 -298 145 -163 106 -270 200
-386 337 -46 55 -146 198 -150 214 -2 5 -17 32 -35 62 -58 96 -138 318 -158
440 -3 19 -8 38 -11 42 -10 16 -18 151 -17 284 0 181 2 207 19 284 8 35 12 66
10 68 -2 3 2 20 10 39 8 19 14 35 13 36 -3 6 24 95 38 127 8 18 16 39 18 45 4
23 30 78 90 196 27 51 128 197 177 255 110 129 277 273 404 347 109 64 303
150 369 164 6 1 37 9 70 18 33 9 76 19 95 22 19 3 41 7 48 9 67 23 447 23 513
1 8 -3 28 -7 44 -10 78 -11 264 -65 315 -91 70 -35 210 -97 246 -108 66 -22
191 -15 248 14 105 52 160 146 159 269 -1 145 -68 223 -286 329 -136 67 -368
152 -452 166 -22 4 -53 11 -70 15 -16 5 -47 11 -67 14 -37 6 -68 11 -138 22
-58 9 -411 11 -470 3z"/>
<path d="M9764 6286 c-57 -15 -124 -60 -154 -102 -14 -19 -31 -42 -38 -49 -7
-8 -12 -18 -12 -22 1 -4 -4 -27 -11 -50 -13 -47 -8 -120 15 -250 21 -118 34
-228 51 -444 8 -92 8 -393 1 -474 -3 -33 -8 -94 -11 -135 -8 -104 -22 -221
-30 -250 -2 -8 -7 -35 -9 -60 -5 -38 -22 -123 -61 -303 -2 -10 -7 -27 -10 -37
-3 -10 -8 -27 -10 -37 -20 -88 -116 -374 -160 -478 -20 -45 -37 -89 -36 -92 0
-3 -56 -118 -100 -206 -45 -91 -110 -209 -130 -239 -11 -14 -19 -29 -19 -32 0
-14 -163 -255 -258 -381 -158 -209 -530 -592 -666 -684 -12 -8 -23 -18 -26
-21 -3 -4 -26 -23 -51 -42 -26 -19 -53 -41 -60 -47 -8 -7 -26 -20 -40 -29 -15
-9 -81 -54 -147 -99 -67 -46 -124 -83 -127 -83 -9 0 -119 -72 -144 -94 -93
-83 -123 -244 -66 -356 55 -109 157 -173 275 -172 76 0 115 14 224 80 37 23
72 42 77 42 5 0 9 3 9 8 0 4 20 18 45 32 25 14 45 27 45 31 0 3 10 10 23 16
27 13 208 141 222 158 6 6 17 16 26 21 19 10 64 46 198 159 103 86 394 373
476 470 118 138 204 249 296 380 55 77 103 145 107 150 5 6 11 15 13 20 2 6
41 71 86 146 75 125 192 348 241 459 11 25 30 68 42 95 52 117 195 515 184
515 -2 0 1 12 7 27 14 36 57 199 64 243 3 19 10 49 15 65 9 31 44 225 55 305
3 25 8 56 10 70 5 26 14 112 21 185 25 273 20 775 -11 970 -2 17 -7 53 -11 80
-3 28 -13 91 -21 140 -8 50 -18 114 -23 143 -24 152 -139 260 -284 267 -34 1
-80 -2 -102 -9z"/>
<path d="M8412 4310 c-98 -32 -158 -96 -212 -228 -18 -42 -52 -119 -76 -171
-24 -51 -44 -97 -44 -102 0 -5 -4 -9 -10 -9 -5 0 -10 -5 -10 -11 0 -25 -139
-247 -234 -374 -101 -136 -279 -328 -402 -435 -66 -58 -222 -179 -264 -205
-25 -15 -47 -31 -50 -34 -12 -15 -195 -119 -310 -176 -177 -89 -450 -190 -543
-201 -16 -2 -33 -6 -38 -9 -5 -4 -19 -8 -31 -10 -13 -3 -45 -9 -73 -15 -252
-52 -416 -61 -845 -49 -99 3 -121 0 -160 -18 -153 -70 -226 -257 -158 -403 40
-86 123 -157 208 -177 109 -26 659 -21 825 7 33 6 80 13 105 16 25 3 63 9 85
14 22 5 54 11 70 14 27 5 255 62 280 70 6 2 17 6 25 9 8 3 53 17 99 32 122 37
267 98 430 179 186 92 179 88 301 164 277 172 557 410 759 642 35 41 67 77 71
80 3 3 38 48 78 100 39 52 80 106 90 120 25 32 162 249 162 256 0 3 15 29 34
59 19 29 33 55 30 58 -2 2 2 10 11 17 8 7 15 16 15 21 0 4 22 54 49 111 27 57
68 150 91 207 38 95 42 110 38 175 -6 115 -65 208 -162 258 -70 36 -158 43
-234 18z"/>
<path d="M1616 3408 c-66 -9 -128 -35 -168 -73 -30 -27 -81 -101 -87 -125 -14
-59 -17 -81 -14 -125 2 -27 8 -63 15 -80 16 -42 178 -329 190 -336 5 -3 10
-10 10 -15 0 -5 34 -60 76 -123 43 -62 82 -121 87 -130 6 -9 12 -18 15 -21 3
-3 41 -52 85 -110 120 -160 244 -299 415 -470 86 -85 169 -166 186 -180 134
-115 301 -250 371 -298 10 -7 63 -44 118 -82 55 -38 106 -70 113 -70 6 0 12
-4 12 -10 0 -5 7 -10 15 -10 8 0 15 -3 15 -8 0 -4 9 -12 20 -17 11 -6 66 -37
122 -70 88 -52 353 -187 453 -230 176 -77 542 -207 620 -220 17 -3 41 -10 55
-15 40 -15 318 -77 380 -85 14 -2 57 -9 95 -15 39 -7 84 -13 100 -15 17 -2 55
-6 85 -9 30 -3 71 -8 90 -11 159 -23 785 -24 906 -1 10 2 53 7 94 10 96 9 332
49 480 82 63 14 123 28 134 30 10 2 33 8 51 14 18 6 41 12 51 14 46 9 160 50
172 63 7 7 17 13 22 13 17 0 73 68 99 120 40 79 40 175 1 257 -54 113 -150
176 -269 175 -36 0 -73 -2 -81 -4 -8 -3 -48 -15 -88 -27 -40 -12 -112 -31
-160 -42 -48 -11 -96 -22 -107 -24 -11 -3 -33 -7 -50 -10 -16 -3 -54 -10 -83
-16 -29 -6 -66 -12 -83 -14 -16 -2 -49 -7 -72 -10 -234 -31 -292 -35 -562 -35
-223 -1 -315 4 -470 24 -16 2 -59 7 -95 11 -80 9 -327 57 -435 85 -44 12 -91
24 -104 26 -13 3 -31 9 -40 13 -9 5 -19 9 -24 9 -36 1 -298 97 -470 172 -163
71 -449 221 -494 260 -7 5 -14 10 -17 10 -5 0 -74 44 -92 59 -5 4 -21 14 -35
21 -13 7 -26 16 -29 19 -3 3 -27 22 -55 40 -27 19 -52 38 -55 41 -3 3 -21 17
-40 30 -133 90 -486 418 -607 563 -29 34 -64 76 -79 92 -44 50 -135 171 -206
273 -37 54 -71 102 -77 109 -6 7 -11 14 -11 17 0 2 -22 40 -48 83 -27 43 -68
114 -92 158 -52 98 -76 133 -110 163 -71 64 -156 92 -244 80z"/>
</g>
</svg>
